<?xml version="1.0" encoding="UTF-8"?>
<svg id="Layer_2" data-name="Layer 2" xmlns="http://www.w3.org/2000/svg" viewBox="0 0 477.38 136.89">
  <defs>
    <style>
      .cls-1 {
        fill: #d87228;
      }

      .cls-2 {
        fill: #231f20;
      }

      .cls-3 {
        fill: none;
        stroke: #d77227;
        stroke-width: 2px;
      }

      .cls-3, .cls-4 {
        stroke-miterlimit: 10;
      }

      .cls-5 {
        fill: #e2a625;
      }

      .cls-6 {
        fill: #4154a5;
      }

      .cls-7 {
        fill: #fff;
      }

      .cls-4 {
        fill: #f5bc23;
        stroke: #fff;
      }

      .cls-8 {
        fill: #d77227;
      }
    </style>
  </defs>
  <g id="Layer_1-2" data-name="Layer 1">
    <g>
      <g>
        <path class="cls-3" d="M123.65,42.63v8.13c0,14.89-10.92,28.21-29.24,35.69l-.05,4.2c-.02,1.86-.05,3.72-.06,5.57,0,.27-.01.62-.03,1-.01.3-.03.6-.05.91v.7l-.08.39-.15,1.61-.53,1.06c-1.82,5.43-6.52,9.34-12.08,10.28v4.7c0,10.49-8.53,19.02-19.02,19.02s-19.02-8.53-19.02-19.02v-5.05c-7.39-1.14-13.09-7.53-13.14-15.23,0-.64.01-1.2.02-1.79l.13-8.32C11.97,79.02,1.01,65.68,1.01,50.76v-7.53c-.01-.19-.01-.4-.01-.6C1,19.29,27.94,1,62.32,1s60.93,18.03,61.31,41.13h.01v.5Z"/>
        <g>
          <path class="cls-5" d="M111.81,42.63v8.13c0,12.11-11.98,22.53-29.2,27.19-4.5,1.22-9.37,2.05-14.47,2.41-1.76-.91-3.76-1.42-5.88-1.42s-4.1.5-5.85,1.41c-4.96-.36-9.69-1.16-14.09-2.33-17.36-4.63-29.47-15.09-29.47-27.26v-8.13c0,1.38.16,2.74.46,4.07,1.76,7.78,8.52,14.61,18.26,19.26.31.15.61.3.93.44,1.01.46,2.06.9,3.13,1.31.33.14.66.26,1,.39.91.33,1.85.65,2.81.95.31.1.62.2.94.29.68.21,1.37.4,2.07.59,6.08,1.61,12.81,2.5,19.88,2.5s13.97-.92,20.11-2.57c15.34-4.11,26.56-12.79,28.91-23.16.3-1.33.46-2.69.46-4.07Z"/>
          <path class="cls-4" d="M111.8,42.63c0,1.38-.16,2.74-.46,4.07-3.29,14.53-23.98,25.73-49.02,25.73-7.89,0-15.34-1.11-21.95-3.09-.32-.09-.63-.19-.94-.29-.96-.3-1.9-.62-2.81-.95-.34-.13-.67-.25-1-.39-1.07-.41-2.12-.85-3.13-1.31-.32-.14-.62-.29-.93-.44-.91-.42-1.79-.88-2.64-1.35-.34-.19-.67-.38-1-.57-.89-.51-1.75-1.05-2.57-1.61-.34-.23-.68-.46-1-.7-.76-.54-1.47-1.09-2.16-1.67-.34-.28-.67-.57-1-.86-.67-.6-1.3-1.21-1.9-1.85-.34-.36-.68-.73-1-1.11-.93-1.09-1.76-2.23-2.47-3.4-.37-.61-.7-1.22-1-1.84-.68-1.39-1.19-2.83-1.52-4.3-.3-1.33-.46-2.69-.46-4.07,0-16.45,22.16-29.79,49.48-29.79s49.48,13.34,49.48,29.79Z"/>
          <path class="cls-8" d="M82.46,96.12c0,.19-.01.38-.02.58-.01.28-.03.57-.05.86-.01.02-.01.04-.01.07-.34,1.66-1.81,2.91-3.57,2.91-2.02,0-3.65-1.63-3.65-3.65v-5.05c0-3.56-1.45-6.79-3.78-9.12-.95-.95-2.03-1.75-3.24-2.36-1.76-.91-3.76-1.42-5.88-1.42s-4.1.5-5.85,1.41c-4.18,2.12-7.05,6.47-7.05,11.49v4.67c0,2.01-1.64,3.65-3.66,3.65s-3.65-1.63-3.66-3.63v-.04c0-.74.02-1.54.03-2.39.07-4.25.16-10.43.25-16.08.05-2.97.09-5.79.13-8.09.01-.47.01-.92.02-1.35-.86-13.32,8.05-18.23,20.32-17.79,4.79.02,9.95.58,13.8,3.67,4.47,3.37,5.61,9.27,5.82,14.58.01.27.02.55.03.82.11,2.71.16,5.4.17,8.09.04,6.12-.1,12.18-.15,18.17Z"/>
          <circle class="cls-8" cx="62.44" cy="38.68" r="7.52"/>
          <path class="cls-7" d="M15.82,52.84v4.09c0,.27-.22.5-.5.5s-.5-.23-.5-.5v-5.93c.3.62.63,1.23,1,1.84Z"/>
          <path class="cls-7" d="M19.29,57.35v2.01c0,.27-.22.5-.5.5s-.5-.23-.5-.5v-3.12c.32.38.66.75,1,1.11Z"/>
          <path class="cls-7" d="M22.19,60.06v4.2c0,.27-.22.5-.5.5s-.5-.23-.5-.5v-5.06c.33.29.66.58,1,.86Z"/>
          <path class="cls-7" d="M25.35,62.43v4.91c0,.28-.23.5-.5.5s-.5-.22-.5-.5v-5.61c.32.24.66.47,1,.7Z"/>
          <path class="cls-7" d="M28.92,64.61v4.69c0,.28-.22.5-.5.5s-.5-.22-.5-.5v-5.26c.33.19.66.38,1,.57Z"/>
          <path class="cls-7" d="M32.49,66.4v5.98c0,.28-.22.5-.5.5s-.5-.22-.5-.5v-6.16c0-.1.03-.19.07-.26.31.15.61.3.93.44Z"/>
          <path class="cls-7" d="M36.62,68.1v4.97c0,.27-.22.5-.5.5s-.5-.23-.5-.5v-5.36c.33.14.66.26,1,.39Z"/>
          <path class="cls-7" d="M40.37,69.34v6.13c0,.27-.23.5-.5.5s-.5-.23-.5-.5v-6.17c0-.09.02-.18.06-.25.31.1.62.2.94.29Z"/>
          <rect class="cls-8" x="55.18" y="84.78" width="14.36" height="39.27" rx="7.18" ry="7.18"/>
          <path class="cls-6" d="M82.45,96.89c0,.23-.02.45-.06.67.02-.29.04-.58.05-.86.01.06.01.13.01.19Z"/>
          <rect class="cls-8" x="37.95" y="36.35" width="11.41" height="5.28" rx="2.64" ry="2.64"/>
          <rect class="cls-8" x="76.27" y="36.04" width="11.41" height="5.28" rx="2.64" ry="2.64"/>
        </g>
        <path class="cls-1" d="M80.88,111.23v5.64c0,10.21-8.31,18.52-18.52,18.52s-18.52-8.31-18.52-18.52v-4.99c.16.03.33.05.5.06v4.93c0,9.94,8.08,18.02,18.02,18.02s18.02-8.08,18.02-18.02v-5.58c.17-.01.33-.03.5-.06Z"/>
        <path class="cls-1" d="M93.79,96.76v.13c0,.48-.02.96-.07,1.44v-.24c.02-.3.04-.6.05-.89,0-.15,0-.3.02-.44Z"/>
        <path class="cls-1" d="M82.45,96.89c0,.23-.02.45-.06.67.02-.29.04-.58.05-.86.01.06.01.13.01.19Z"/>
      </g>
      <g>
        <path class="cls-2" d="M164.84,39.34c4.38.05,10.1.98,13.04,4.79,3.61,4.56,4.15,14.43-.48,18.47-.59.65-.88,1.15-.38,1.79,4.81,3.45,5.62,8.99,4.62,14.66-1.83,10.36-11.41,11.14-19.51,10.98-4.5-.1-11.77.18-14.29-.1-.33-2.92,0-37.47-.12-47.74,0-1.11-.02-1.79.02-2.6.06-.25.27-.23.53-.26,2.38.01,12.82-.05,16.44,0h.13ZM158.37,48.52c-.25.57-.05,1.55-.11,2.44.01,2.86-.03,7.39.02,8.25.04.21.15.27.39.3.44.05,1.57.02,2.76.03,2.54-.06,5.16.37,7.17-1.42,1.97-2.04,1.97-6.23,0-8.28-1.71-1.55-3.93-1.41-6.13-1.42-.99.03-3.45-.08-4.04.07l-.05.03ZM158.39,68.83c-.34.64-.07,1.72-.15,2.72.02,3.08-.04,7.9.03,8.94.06.31.21.37.55.41.57.05,1.96.02,3.33.03,3.35-.08,5.68.42,7.92-1.97,1.74-2.16,1.69-6.64-.24-8.59-1.42-1.43-3.44-1.66-5.38-1.66-1.16.05-4.84-.12-5.99.09l-.06.03Z"/>
        <path class="cls-2" d="M219.3,72.73c.38-9.45-4.11-17.84-15.16-18.06-12.14-.61-17.78,7.71-17.07,19.21v.2c-.1,10.84,6.88,17.52,17.54,16.68,10.74-.42,15.06-8.79,14.69-18.03ZM208.63,80.03c0,3.02-2.44,5.47-5.46,5.47s-5.47-2.45-5.47-5.47v-12.71c0-3.02,2.45-5.47,5.47-5.47,1.51,0,2.88.61,3.86,1.6.99.99,1.6,2.36,1.6,3.87v12.71Z"/>
        <path class="cls-2" d="M245.03,57.98c.49.25.3-.93.34-2.71.05-5.31-.09-14.24.06-16.84.13-.45.61-.42,1.02-.45,1.54-.03,5.98,0,7.83-.01.92.07,1.29-.14,1.39.47.07,4.82-.12,38.54.08,43.14.08,1.68.38,5.82.41,7.34.07.79-.48,1.16-1.22,1.12-1.57,0-4.76.06-6.64-.02-1.36,0-1.5-1.5-1.84-2.48-.15-.39-.35-.64-.6-.63-.56.02-1.48,1.28-2.54,1.94-2.2,1.55-5.16,2.11-7.9,1.94-12.94-.45-13.01-17.51-10.69-27.29,2.19-9.12,13.6-11.34,20.23-5.55l.06.03ZM239.51,63.56c-6.48-.16-5.92,9.08-5.22,13.79.71,5.35,6.94,5.99,10.23,2.48.92-.92.87-1.4.85-3.25,0-2.77,0-6.03,0-8.71.06-2.34-2.93-4.09-5.65-4.3h-.2Z"/>
        <path class="cls-2" d="M282.06,87.34c-.47-.13-.91.32-1.31.58-3.19,2.52-7.81,3.43-11.91,2.68-6.57-1.14-8.37-6.81-7.71-12.26.4-4.09,3.1-6.96,7.15-8.28,2.99-1,5.09-1.23,8.45-1.76,1.38-.24,4.18-.38,4.28-1.63.44-3.85-4.93-5.05-7.53-2.97-1.26.94-1.13,2.82-2.46,3.1-1.81.28-4.71.08-6.73.12-.44-.02-.93-.06-1.28-.22-1.1-.58-.55-2.09-.34-3.48.89-4.95,6.08-8.2,12.38-8.45,6.21-.52,13.76,1.15,15.53,6.62,1.85,5.18.84,11.35,1.09,16.84-.04,3.22.45,7.76.55,10.72.07.79-.46,1.16-1.21,1.12-1.42.03-4.63.02-6.3,0-2.07.09-1.56-1.72-2.56-2.7l-.08-.04ZM281.22,79.98c.15-.29.1-.74.11-1.58-.01-1.55.02-3.9-.02-4.49-.02-.09-.06-.19-.15-.24-.82-.03-2.13.32-3.58.5-1.96.33-3.38.39-4.89,1.42-.74.54-1.18,1.29-1.34,2.17-1.2,6.16,7.09,5.72,9.82,2.31l.05-.09Z"/>
        <path class="cls-8" d="M316.51,81.72c2.97.12,5.93-1.51,6.73-4.48.49-1.37.51-3.06,1.06-3.8,1.25-1.23,3.65-.49,5.33-.68,1.93.11,5-.66,4.76,2-.17,9.08-4.8,14.74-13.28,15.79-13.53,1.97-23.19-3.57-23.7-20.72-.26-5.83-.28-12.26,1.05-17.87,2.41-9.72,8.43-13.78,19.07-13.46,4.64.07,10.09,1.41,12.99,4.79,2.85,2.95,4.64,9.8,3.65,14.61-.3.5-.89.61-1.46.64-1.65.03-4.77.02-6.61,0-.81-.02-1.64-.22-1.94-1.01-.71-2.87-.69-7.87-4.2-9.24-4.04-1.68-9.31-.26-10.65,4.28-1.73,5.14-1.39,11.26-1.26,16.74.51,7.52,1.81,12.13,8.26,12.4h.19Z"/>
        <path class="cls-8" d="M359.51,54.99c.94.88.35,3.22.51,4.71-.09,1.41.24,3.3-.26,4.38-.87.93-2.63.54-3.83.9-2.96.68-4.76,1.63-5.09,3.29-.07,4.15.02,19.26-.04,21.27-.14.82-1.04.45-1.88.55-1.14,0-2.83,0-4.35,0-.98,0-1.89,0-2.54,0-1.19-.05-1.47.07-1.52-.66-.05-8.59.23-24.3-.49-32.3-.1-1.47.15-1.6,1.77-1.6,2.04.07,4.71-.17,6.62.13,1.11.25.93,2.56,1.63,2.95.44.21.86-.33,1.21-.62,1.94-1.91,5.25-3.64,8.17-3.05l.1.05Z"/>
        <path class="cls-8" d="M372.94,77.29c.23,5.03,5.39,6.97,9.66,4.83,1.77-.7,1.95-3.16,4.01-3.1,1.63-.04,4.82-.04,6.44,0,.44.03.87.09,1.17.35.53.52.26,1.46.14,2.15-.59,2.76-2.28,5.15-4.96,6.81-3.73,2.41-9.86,2.99-14.19,2.22-9.07-1.41-12.99-9.05-12.78-17.55-.37-9.11,4.26-17.56,14.48-18.2,3.45-.3,7.46.26,10.33,1.91,6.72,3.66,8.06,12.37,7.25,19.41-.15.34-.45.38-.79.39-3.14.02-16.54,0-19.92.01-.46.01-.79.15-.84.66v.11ZM372.77,68.84c.05.32.29.26.76.27,2.92-.02,9.16.03,10.54-.02.44-.2.23-.67.19-1.24-.43-4.21-3.84-6.07-7.67-5.04-2.29.51-3.7,3.14-3.82,5.93v.12Z"/>
        <path class="cls-8" d="M420.4,57.98c.49.25.3-.93.34-2.71.05-5.31-.09-14.24.06-16.84.13-.45.61-.42,1.02-.45,1.54-.03,5.98,0,7.83-.01.92.07,1.29-.14,1.39.47.07,4.82-.12,38.54.08,43.14.08,1.68.38,5.82.41,7.34.07.79-.48,1.16-1.22,1.12-1.57,0-4.76.06-6.64-.02-1.36,0-1.5-1.5-1.84-2.48-.15-.39-.35-.64-.6-.63-.56.02-1.48,1.28-2.54,1.94-2.2,1.55-5.16,2.11-7.9,1.94-12.94-.45-13.01-17.51-10.69-27.29,2.19-9.12,13.6-11.34,20.23-5.55l.06.03ZM414.88,63.56c-6.48-.16-5.92,9.08-5.22,13.79.71,5.35,6.94,5.99,10.23,2.48.92-.92.87-1.4.85-3.25,0-2.77,0-6.03,0-8.71.06-2.34-2.93-4.09-5.65-4.3h-.2Z"/>
        <path class="cls-8" d="M448.37,50.62c-2.7.22-6.77.01-9.69.08-1.13.02-.96-.05-.98-1.47,0-2.44,0-5.34,0-7.72-.02-2.04-.14-1.62,1.93-1.67,2.49,0,5.36,0,7.89,0,1.13-.02.96.05.98,1.47-.07,2.82.15,6.66-.09,9.27l-.04.04ZM438.21,55.64c2.07-.08,8.1-.21,9.86.06.43,2.91.01,27.59.16,33.14-.04.98.22,1.16-1.04,1.17-1.5.01-5.77,0-7.72,0-.82-.07-1.22.15-1.49-.32-.07-1.71-.01-17.12-.03-26.6,0-3.57,0-6.29,0-7.11.01-.16.04-.27.19-.34l.05-.02Z"/>
        <path class="cls-8" d="M477.1,55.88c.5,1.01.16,3.14.26,4.57-.02,1.18.07,2.31-.09,3.3-.08.36-.24.56-.58.67-1.87.37-5.63-.16-7.7.27-.79.53-.36,1.63-.47,2.77.03,3.33-.06,6.81.04,9.57.2,4.39,2.93,5.22,6.9,4.85.89-.03,1.18.52,1.21,1.29.05,1.35.04,3.94.01,5.32-.03.54-.06,1.12-.43,1.51-1.11.82-3.39.74-5.08.84-7.36.25-12.52-3.82-12.83-11.26-.24-3.83-.04-9.96-.11-13.43.25-2.3-2.29-1.39-3.7-1.64-1.15.01-1.6-.64-1.55-1.7,0-1.59-.04-4.51.02-5.88.01-2.01,2.75-1.15,4.02-1.43.59-.07.94-.26,1.08-.68.26-.88.09-3.02.14-4.28,0-.98,0-1.97,0-2.92,0-1.54.16-1.82,1.55-1.82,2.3-.01,4.9,0,7.16,0,1.39,0,1.55.28,1.55,1.82,0,1.77,0,3.72,0,5.48,0,1.56-.13,2.45,1.35,2.44,1.85.19,5.75-.32,7.17.28l.06.06Z"/>
      </g>
    </g>
  </g>
</svg>