<?xml version="1.0" encoding="UTF-8"?>
<svg id="Layer_2" data-name="Layer 2" xmlns="http://www.w3.org/2000/svg" viewBox="0 0 124.65 136.89">
  <defs>
    <style>
      .cls-1 {
        fill: #d87228;
      }

      .cls-2 {
        fill: none;
        stroke: #d77227;
        stroke-width: 2px;
      }

      .cls-2, .cls-3 {
        stroke-miterlimit: 10;
      }

      .cls-4 {
        fill: #e2a625;
      }

      .cls-5 {
        fill: #4154a5;
      }

      .cls-6 {
        fill: #fff;
      }

      .cls-3 {
        fill: #f5bc23;
        stroke: #fff;
      }

      .cls-7 {
        fill: #d77227;
      }
    </style>
  </defs>
  <g id="Layer_1-2" data-name="Layer 1">
    <g>
      <path class="cls-2" d="M123.65,42.63v8.13c0,14.89-10.92,28.21-29.24,35.69l-.05,4.2c-.02,1.86-.05,3.72-.06,5.57,0,.27-.01.62-.03,1-.01.3-.03.6-.05.91v.7l-.08.39-.15,1.61-.53,1.06c-1.82,5.43-6.52,9.34-12.08,10.28v4.7c0,10.49-8.53,19.02-19.02,19.02s-19.02-8.53-19.02-19.02v-5.05c-7.39-1.14-13.09-7.53-13.14-15.23,0-.64.01-1.2.02-1.79l.13-8.32C11.97,79.02,1.01,65.68,1.01,50.76v-7.53c-.01-.19-.01-.4-.01-.6C1,19.29,27.94,1,62.32,1s60.93,18.03,61.31,41.13h.01v.5Z"/>
      <g>
        <path class="cls-4" d="M111.81,42.63v8.13c0,12.11-11.98,22.53-29.2,27.19-4.5,1.22-9.37,2.05-14.47,2.41-1.76-.91-3.76-1.42-5.88-1.42s-4.1.5-5.85,1.41c-4.96-.36-9.69-1.16-14.09-2.33-17.36-4.63-29.47-15.09-29.47-27.26v-8.13c0,1.38.16,2.74.46,4.07,1.76,7.78,8.52,14.61,18.26,19.26.31.15.61.3.93.44,1.01.46,2.06.9,3.13,1.31.33.14.66.26,1,.39.91.33,1.85.65,2.81.95.31.1.62.2.94.29.68.21,1.37.4,2.07.59,6.08,1.61,12.81,2.5,19.88,2.5s13.97-.92,20.11-2.57c15.34-4.11,26.56-12.79,28.91-23.16.3-1.33.46-2.69.46-4.07Z"/>
        <path class="cls-3" d="M111.8,42.63c0,1.38-.16,2.74-.46,4.07-3.29,14.53-23.98,25.73-49.02,25.73-7.89,0-15.34-1.11-21.95-3.09-.32-.09-.63-.19-.94-.29-.96-.3-1.9-.62-2.81-.95-.34-.13-.67-.25-1-.39-1.07-.41-2.12-.85-3.13-1.31-.32-.14-.62-.29-.93-.44-.91-.42-1.79-.88-2.64-1.35-.34-.19-.67-.38-1-.57-.89-.51-1.75-1.05-2.57-1.61-.34-.23-.68-.46-1-.7-.76-.54-1.47-1.09-2.16-1.67-.34-.28-.67-.57-1-.86-.67-.6-1.3-1.21-1.9-1.85-.34-.36-.68-.73-1-1.11-.93-1.09-1.76-2.23-2.47-3.4-.37-.61-.7-1.22-1-1.84-.68-1.39-1.19-2.83-1.52-4.3-.3-1.33-.46-2.69-.46-4.07,0-16.45,22.16-29.79,49.48-29.79s49.48,13.34,49.48,29.79Z"/>
        <path class="cls-7" d="M82.46,96.12c0,.19-.01.38-.02.58-.01.28-.03.57-.05.86-.01.02-.01.04-.01.07-.34,1.66-1.81,2.91-3.57,2.91-2.02,0-3.65-1.63-3.65-3.65v-5.05c0-3.56-1.45-6.79-3.78-9.12-.95-.95-2.03-1.75-3.24-2.36-1.76-.91-3.76-1.42-5.88-1.42s-4.1.5-5.85,1.41c-4.18,2.12-7.05,6.47-7.05,11.49v4.67c0,2.01-1.64,3.65-3.66,3.65s-3.65-1.63-3.66-3.63v-.04c0-.74.02-1.54.03-2.39.07-4.25.16-10.43.25-16.08.05-2.97.09-5.79.13-8.09.01-.47.01-.92.02-1.35-.86-13.32,8.05-18.23,20.32-17.79,4.79.02,9.95.58,13.8,3.67,4.47,3.37,5.61,9.27,5.82,14.58.01.27.02.55.03.82.11,2.71.16,5.4.17,8.09.04,6.12-.1,12.18-.15,18.17Z"/>
        <circle class="cls-7" cx="62.44" cy="38.68" r="7.52"/>
        <path class="cls-6" d="M15.82,52.84v4.09c0,.27-.22.5-.5.5s-.5-.23-.5-.5v-5.93c.3.62.63,1.23,1,1.84Z"/>
        <path class="cls-6" d="M19.29,57.35v2.01c0,.27-.22.5-.5.5s-.5-.23-.5-.5v-3.12c.32.38.66.75,1,1.11Z"/>
        <path class="cls-6" d="M22.19,60.06v4.2c0,.27-.22.5-.5.5s-.5-.23-.5-.5v-5.06c.33.29.66.58,1,.86Z"/>
        <path class="cls-6" d="M25.35,62.43v4.91c0,.28-.23.5-.5.5s-.5-.22-.5-.5v-5.61c.32.24.66.47,1,.7Z"/>
        <path class="cls-6" d="M28.92,64.61v4.69c0,.28-.22.5-.5.5s-.5-.22-.5-.5v-5.26c.33.19.66.38,1,.57Z"/>
        <path class="cls-6" d="M32.49,66.4v5.98c0,.28-.22.5-.5.5s-.5-.22-.5-.5v-6.16c0-.1.03-.19.07-.26.31.15.61.3.93.44Z"/>
        <path class="cls-6" d="M36.62,68.1v4.97c0,.27-.22.5-.5.5s-.5-.23-.5-.5v-5.36c.33.14.66.26,1,.39Z"/>
        <path class="cls-6" d="M40.37,69.34v6.13c0,.27-.23.5-.5.5s-.5-.23-.5-.5v-6.17c0-.09.02-.18.06-.25.31.1.62.2.94.29Z"/>
        <rect class="cls-7" x="55.18" y="84.78" width="14.36" height="39.27" rx="7.18" ry="7.18"/>
        <path class="cls-5" d="M82.45,96.89c0,.23-.02.45-.06.67.02-.29.04-.58.05-.86.01.06.01.13.01.19Z"/>
        <rect class="cls-7" x="37.95" y="36.35" width="11.41" height="5.28" rx="2.64" ry="2.64"/>
        <rect class="cls-7" x="76.27" y="36.04" width="11.41" height="5.28" rx="2.64" ry="2.64"/>
      </g>
      <path class="cls-1" d="M93.79,96.76v.13c0,.48-.02.96-.07,1.44v-.24c.02-.3.04-.6.05-.89,0-.15,0-.3.02-.44Z"/>
      <path class="cls-1" d="M82.45,96.89c0,.23-.02.45-.06.67.02-.29.04-.58.05-.86.01.06.01.13.01.19Z"/>
    </g>
  </g>
</svg>