<?xml version="1.0" encoding="UTF-8"?>
<svg id="Layer_2" data-name="Layer 2" xmlns="http://www.w3.org/2000/svg" viewBox="0 0 121.01 110.17">
  <defs>
    <style>
      .cls-1 {
        fill: #fff;
      }
    </style>
  </defs>
  <g id="Layer_1-2" data-name="Layer 1">
    <g>
      <path d="M71.58,99.04l-25.51.03c-1.27,0-2.26-.89-2.26-2.06l-.06-8.62-23.06,6.19c-1.2.32-2.55.1-3.53-.56-1.43-.98-1.92-2.73-1.61-4.34s1.64-2.75,3.36-3.21l10.43-2.79c-4.23-6.16-13.01-6.78-18.22-1.61s-4.6,13.91,1.43,18.26,14.45,2.3,17.8-4.44l8.47-2.2c-1.35,9.48-9.68,16.32-18.87,16.48-9.66.17-17.9-6.73-19.62-15.94s3.75-18.95,12.77-22.11c9.18-3.21,19.24.72,23.84,9.47l4.17-1.08c-6.14-12.94-22.06-17.77-34.42-9.93l-.03-7c0-1.22,1.04-2.21,2.29-2.21l12.17-.02c-.26-1.73.29-3.67,2.17-4.09.84-.19,1.93-.08,2.94,0,.73,3.57,3.09,6.35,6.68,7.26l13.84,3.52-.28,1.62,3.47.75,1.3-5.03-17.36-4.38c-2.24-.56-3.62-2.43-4.09-4.58-2.13-9.78-.44-21.16,3.24-30.4.65-1.62,2.23-4.06,4.18-4.11,3.4-.09,6.85,1,10,2.18,2.14.8,9.9,9.25,11.82,11.48l12.41,1.49c1.54.18,2.81.81,3.32,2.37l3.74.07c1.01.02,2.05,1.01,2.5,1.91l3.4,6.88c1.63-.65,3.41-.82,5.05.08,3,1.66,4.72,5.08,4.09,8.47-.32,1.73-1.31,2.94-2.86,3.72.08.37.33.84.68,1.12,10.47-3.48,22.23.43,28.2,10.06-.96.1-2.26.16-3.23.05-6.31-4.83-14.38-6.3-21.96-3.79l1.89,3.73c9.37-2.63,19.03,2.16,22.97,10.74,4.07,8.88.91,19.25-7.08,24.49s-18.89,3.85-25.3-3.3-6.81-18.29-.17-25.9l3.84,7.83c-3.2,6.98.81,14.8,7.88,16.63s14.31-3.24,14.97-10.5c.69-7.63-5.73-14.04-13.57-13l5.1,10.13c.88,1.74.48,3.65-1.22,4.68-1.23.74-3.71.74-4.59-1l-10.92-21.44c-7.84,5.25-10.17,11.13-10.19,20.18,0,1.3-.15,2.61-.58,3.84-.83,2.37-3.06,3.95-5.83,3.95ZM63.66,54.84c.8-1.5,2.43-2.06,4.07-1.91,1.7-.2,3.29.2,4.43,1.56,3.1-.72,5.76.19,8.47,1.71l-4.78-9.43h-4.61c-1.6.01-2.67-.94-3.52-2.23l-8.38.44c-1.52.26-2.91-.12-4.16-.91l-7.75-6.28-2.56,11.02,15.83,8.41c.96.51,1.58,1.85,1.81,2.83.39,1.73.17,3.35-.41,5.02l-7.2,20.97c-.38,1.12-.89,1.86-1.78,2.74l3.21,2.01c.93-1.05,1.51-2.06,1.97-3.37l6.67-19.22c1.64-4.73,2.46-9.37-1.29-13.35Z"/>
      <path d="M51.77,16.36c2.99,1.66,2.15-.79,5.72,1.32-.82,2.11-1.76,3.93-3.25,5.55-6.44-2.77-12.94-4.52-19.77-5.01-2.08-3.95-2-8.31.06-12.13,1.74-3.22,4.68-5.4,8.4-5.93,4.92-.7,10,1.09,13.37,4.74,1.54,1.67,3.19,5.03,1.42,6.94l-5.17-2.05c-1.06.85-1.91,2-2.3,3.28-.44,1.44.26,2.6,1.51,3.29Z"/>
      <path class="cls-1" d="M63.66,54.84c3.76,3.98,2.94,8.62,1.29,13.35l-6.67,19.22c-.46,1.31-1.04,2.32-1.97,3.37l-3.21-2.01c.89-.88,1.39-1.61,1.78-2.74l7.2-20.97c.57-1.66.8-3.29.41-5.02-.22-.98-.85-2.32-1.81-2.83l-15.83-8.41,2.56-11.02,7.75,6.28c1.25.79,2.64,1.17,4.16.91l8.38-.44c.85,1.3,1.92,2.25,3.52,2.24h4.61s4.78,9.42,4.78,9.42c-2.71-1.52-5.37-2.43-8.47-1.71-1.13-1.36-2.73-1.76-4.43-1.56-1.63-.15-3.26.41-4.07,1.91Z"/>
    </g>
  </g>
</svg>