<?xml version="1.0" encoding="UTF-8"?>
<svg id="Layer_2" data-name="Layer 2" xmlns="http://www.w3.org/2000/svg" viewBox="0 0 97.14 94.88">
  <g id="Layer_1-2" data-name="Layer 1">
    <path d="M97.13,80.29c0,7.9-5.06,14.37-13.63,14.17s-12.63-6.44-12.64-14.49l-.05-42.37c0-2.71-2.2-4.65-4.57-4.66l-5.37-.03v45.73c0,1.94,1.58,3.22,3.36,3.29,1.93.07,3.38,1.43,3.38,3.4v5.98c.01,2.27-1.56,3.57-3.78,3.57H3.45C1.37,94.87,0,93.28,0,91.33v-6.01c.02-1.94,1.47-3.32,3.35-3.38,2.04-.06,3.42-1.51,3.42-3.64V4.94C6.77,2,8.84,0,11.72,0h44.15c2.86,0,5,2.02,5,4.89v18.95s5.72.12,5.72.12c7.16.15,13.12,5.8,13.15,13.27l.18,44.06c0,1.24.59,2.79,1.5,3.43,1.39.98,3.56,1.06,4.94.03,1.07-.79,1.77-2.58,1.77-4.11V31.35c-6.28-2.43-9.01-7.74-9.04-14.21l-8.51-5.67c-2.16-1.44-2.82-4.03-1.63-6.12s4.16-3.03,6.36-1.56l21.82,14.51v62ZM47.77,36.11c2.2,0,3.69-1.74,3.69-3.71V13.22c0-1.97-1.47-3.75-3.56-3.75h-27.56c-2.17-.01-3.8,1.55-3.8,3.73v19.31c.01,1.86,1.55,3.59,3.49,3.6h27.74Z"/>
  </g>
</svg>