<?xml version="1.0" encoding="UTF-8"?>
<svg id="Layer_2" data-name="Layer 2" xmlns="http://www.w3.org/2000/svg" viewBox="0 0 119.7 84.31">
  <g id="Layer_1-2" data-name="Layer 1">
    <g>
      <path d="M100.27,26.39c-1.4-2.24-3.13-4.21-5.19-5.89-3.18-2.58-6.64-4.58-10.45-6.11-7.86-3.16-16.27-4.53-24.77-4.53-9.59,0-19.77,1.79-28.29,6.16-1.7.87-3.26,1.73-4.8,2.84-3.1,2.23-6.06,5.01-7.86,8.41-2.72,5.16-2.46,10.45.48,15.45,3.12,5.28,9.36,9.35,14.92,11.72,6.88,2.92,14.57,4.45,22.06,4.78,7.7.34,14.98-.38,22.38-2.45,3.3-.92,6.35-2.1,9.41-3.64,2.48-1.24,4.69-2.71,6.87-4.41.8-.62,1.44-1.31,2.16-2.04,1.66-1.67,3.02-3.57,4.03-5.71,2.24-4.76,1.82-10.12-.95-14.58ZM74.32,34.37c-1.78-3.06-7.44-7.17-10.89-5.01-.72.46-.66,1.37-.31,2.06,1.24,2.48,2.55,3.15,3.76,5.75,1.25,2.69-.32,4.48-2.57,5.8-4.47,2.64-10.71,2.26-15.57.26l-4.39,2.49-4.08-2.42,3.89-2.34c-1.7-1.14-4.41-3.15-5.29-5.24l6.07-2.05c.32-.11.41.44.54.63,1.83,2.65,4.5,4.73,7.6,5.6,1.39.39,2.82.3,4-.33.94-.5,1.2-1.43.76-2.36-.99-2.1-3.23-3.6-4.07-6.31-.51-1.64.04-3.12,1.37-4.18,4.28-3.4,11.02-2.95,15.96-1.06l4.08-2.28,4.17,2.38-3.68,2.19c1.44.86,4.14,2.97,4.66,4.41l-6.02,2.02ZM100.27,26.39c-1.4-2.24-3.13-4.21-5.19-5.89-3.18-2.58-6.64-4.58-10.45-6.11-7.86-3.16-16.27-4.53-24.77-4.53-9.59,0-19.77,1.79-28.29,6.16-1.7.87-3.26,1.73-4.8,2.84-3.1,2.23-6.06,5.01-7.86,8.41-2.72,5.16-2.46,10.45.48,15.45,3.12,5.28,9.36,9.35,14.92,11.72,6.88,2.92,14.57,4.45,22.06,4.78,7.7.34,14.98-.38,22.38-2.45,3.3-.92,6.35-2.1,9.41-3.64,2.48-1.24,4.69-2.71,6.87-4.41.8-.62,1.44-1.31,2.16-2.04,1.66-1.67,3.02-3.57,4.03-5.71,2.24-4.76,1.82-10.12-.95-14.58ZM74.32,34.37c-1.78-3.06-7.44-7.17-10.89-5.01-.72.46-.66,1.37-.31,2.06,1.24,2.48,2.55,3.15,3.76,5.75,1.25,2.69-.32,4.48-2.57,5.8-4.47,2.64-10.71,2.26-15.57.26l-4.39,2.49-4.08-2.42,3.89-2.34c-1.7-1.14-4.41-3.15-5.29-5.24l6.07-2.05c.32-.11.41.44.54.63,1.83,2.65,4.5,4.73,7.6,5.6,1.39.39,2.82.3,4-.33.94-.5,1.2-1.43.76-2.36-.99-2.1-3.23-3.6-4.07-6.31-.51-1.64.04-3.12,1.37-4.18,4.28-3.4,11.02-2.95,15.96-1.06l4.08-2.28,4.17,2.38-3.68,2.19c1.44.86,4.14,2.97,4.66,4.41l-6.02,2.02ZM117.16,24.61c-3.85-7.33-10.88-12.5-18.17-16.17-5.27-2.65-10.78-4.49-16.53-5.86C74.64.71,65.07-.22,57.04.05c-7.89.26-15.65,1.29-23.27,3.42-8.68,2.42-17.49,6.39-24.26,12.4C4.42,20.39.48,26.38.07,33.36c-.1,1.51-.06,2.94-.06,4.37l.13.21c.51,4.45,2.94,8.82,5.87,12.18.08.08.18.14.29.2.12.06.23.1.36.13l.09.5c1.86,1.96,3.93,3.74,6.06,5.4l.39-.05.19.47c3.07,2.06,6.36,3.85,9.72,5.38,0,0,.03-.01.1-.04.06-.02.15-.05.27-.1l.07.33c1.92.82,3.89,1.6,5.89,2.33l.43-.08.12.29c3.03.59,6.04,1.37,9.04,2.35.29.1.6.12.92.08.12,0,.24-.03.37-.06l.4.26c1.8.46,3.73.8,5.56,1.02,0,0,.02,0,.03,0,.09,0,.17-.08.24-.17.16.22.43.3.81.25,3.03.33,6.09.56,9.14.65,2.22.08,4.44.1,6.66.03,3.17-.08,6.33-.31,9.46-.71.14-.02.28-.08.42-.15.11-.05.21-.12.31-.18.03-.03.05-.04.08-.06.15.05.29.09.45.12.77.13,4.44-.44,5.11-.81.14-.08.26-.17.39-.26.04,0,.08-.02.13-.03.17-.03.31.01.43.18,3.33-.68,6.6-1.55,9.81-2.63l.22-.37.65.04c.96-.28,4.84-1.53,5.57-2.1.03-.03.06-.05.08-.07.07-.08.13-.19.19-.29l.53-.06c3.24-1.51,6.34-3.22,9.29-5.14.13-.13.21-.31.26-.52.13-.02.27-.04.39-.09.13-.04.25-.08.35-.15,1.92-1.53,3.76-3.07,5.48-4.84.08-.08.13-.21.18-.33.05-.13.09-.26.12-.4.07-.03.12-.04.17-.04.05-.02.1-.04.15-.06.1-.04.2-.09.26-.16,2.67-2.78,4.69-6.6,5.6-10.3l.05,9.63.27.1c.08.06.12-.05.12-.17l.03-14.22c.01-3.82-.76-7.28-2.54-10.66ZM93.21,57.78c-12.13,5.8-29.66,8.23-42.71,6.49l-3.01-.4c-4.21-.56-8.25-1.46-12.32-2.7-4.33-1.31-8.34-3.04-12.26-5.26-1.06-.6-1.98-1.22-2.99-1.9-2.46-1.64-4.62-3.52-6.6-5.72-3.08-3.42-5.29-7.73-5.63-12.38-.66-9.07,5.53-16.3,12.63-21.03.81-.53,1.51-1,2.35-1.49,15.98-9.23,38.39-10.93,56.16-6.9,7.15,1.62,13.79,4.08,19.96,8,4.5,2.86,8.49,6.63,11.03,11.33,3.1,5.75,2.97,12.49-.34,18.12-.52.89-1.02,1.74-1.65,2.56l-.6.78c-3.33,4.34-9.08,8.14-14.03,10.51ZM95.08,20.51c-3.18-2.58-6.64-4.58-10.45-6.11-7.86-3.16-16.27-4.53-24.77-4.53-9.59,0-19.77,1.79-28.29,6.16-1.7.87-3.26,1.73-4.8,2.84-3.1,2.23-6.06,5.01-7.86,8.41-2.72,5.16-2.46,10.45.48,15.45,3.12,5.28,9.36,9.35,14.92,11.72,6.88,2.92,14.57,4.45,22.06,4.78,7.7.34,14.98-.38,22.38-2.45,3.3-.92,6.35-2.1,9.41-3.64,2.48-1.24,4.69-2.71,6.87-4.41.8-.62,1.44-1.31,2.16-2.04,1.66-1.67,3.02-3.57,4.03-5.71,2.24-4.76,1.82-10.12-.95-14.58-1.4-2.24-3.13-4.21-5.19-5.89ZM74.32,34.37c-1.78-3.06-7.44-7.17-10.89-5.01-.72.46-.66,1.37-.31,2.06,1.24,2.48,2.55,3.15,3.76,5.75,1.25,2.69-.32,4.48-2.57,5.8-4.47,2.64-10.71,2.26-15.57.26l-4.39,2.49-4.08-2.42,3.89-2.34c-1.7-1.14-4.41-3.15-5.29-5.24l6.07-2.05c.32-.11.41.44.54.63,1.83,2.65,4.5,4.73,7.6,5.6,1.39.39,2.82.3,4-.33.94-.5,1.2-1.43.76-2.36-.99-2.1-3.23-3.6-4.07-6.31-.51-1.64.04-3.12,1.37-4.18,4.28-3.4,11.02-2.95,15.96-1.06l4.08-2.28,4.17,2.38-3.68,2.19c1.44.86,4.14,2.97,4.66,4.41l-6.02,2.02Z"/>
      <path d="M46.55,68.37c-.06.08-.15.17-.24.17,0,0-.02,0-.03,0l.26-.16Z"/>
      <path d="M73.42,68.21s-.06.03-.08.06c-.1.06-.21.13-.31.18-.14.06-.28.13-.42.15-3.13.4-6.29.63-9.46.71-2.22.06-4.44.05-6.66-.03-3.05-.1-6.1-.32-9.14-.65-.38.05-.65-.03-.81-.25.62-.12,1.24.04,1.91.12,2.64.33,6.29.57,8.95.55l7.31-.04,3.96-.27c1.64-.12,3.2-.3,4.75-.52Z"/>
      <path d="M40.32,67.25c-.13.03-.24.05-.37.06-.33.04-.63.01-.92-.08-2.99-.97-6-1.76-9.04-2.35l-.12-.29.68.1c3.33.51,6.49,1.88,9.77,2.57Z"/>
      <path d="M89.97,64.41l-.22.37c-3.21,1.08-6.48,1.95-9.81,2.63-.12-.17-.26-.21-.43-.18,2.86-.61,7.84-1.8,10.47-2.82Z"/>
      <path d="M23.49,62.01c-.12.04-.21.08-.27.1-.07.03-.1.04-.1.04-3.36-1.53-6.65-3.32-9.72-5.38l-.19-.47c2.29,1.69,7.57,4.58,10.27,5.71,0,0,.01,0,.01,0Z"/>
      <path d="M96.46,62c-.06.1-.12.21-.19.29-.02.02-.04.04-.08.07v-.1l.27-.26Z"/>
      <path d="M105.85,70.53c-1.26.99-2.69,1.86-4.1,2.59l3.24-2.08c.31-.2.55-.42.86-.51Z"/>
      <path d="M106.53,56.28c-.04.21-.13.38-.26.52-2.95,1.92-6.05,3.64-9.29,5.14l-.53.06c2.57-1.23,5.12-2.59,7.55-4.16.86-.55,1.79-.97,2.53-1.56Z"/>
      <path d="M40.32,67.25c-.13.03-.24.05-.37.06.12-.08.25-.06.37-.06Z"/>
      <path d="M46.55,68.37c-.06.08-.15.17-.24.17,0,0-.02,0-.03,0-1.83-.22-3.76-.56-5.56-1.02l-.4-.26c1.9.39,3.83.67,5.82.95.19.03.31.1.41.17Z"/>
      <path d="M96.46,62c-.06.1-.12.21-.19.29-.02.02-.04.04-.08.07-.72.56-4.6,1.82-5.57,2.1l-.65-.04c2.13-.82,4.42-1.42,6.49-2.41Z"/>
      <path d="M79.37,67.26c-.13.1-.25.19-.39.26-.67.37-4.34.94-5.11.81-.15-.03-.3-.06-.45-.12,1.99-.28,3.98-.55,5.95-.96Z"/>
      <path d="M23.49,62.01c-.12.04-.21.08-.27.1v-.07c0-.05.22-.04.26-.03,0,0,.01,0,.01,0Z"/>
      <path d="M28.8,77.99c-.08-.02-.15-.03-.22-.04-.98-.22-1.9-.56-2.79-1.05l3.01,1.1Z"/>
      <path d="M29.87,64.58l-.43.08c-2-.73-3.96-1.51-5.89-2.33l-.07-.33,2.94,1.24c1.17.49,2.39.74,3.44,1.33Z"/>
      <path d="M7.21,64.96c-.35-.29-.58-.59-.7-.9.24.31.67.5.7.9Z"/>
      <path d="M9.6,67.3c-.31-.21-.58-.44-.8-.72t0-.01s-.06-.06-.08-.1c.03.01.04.03.06.06.28.24.71.38.83.78Z"/>
      <path d="M13.2,56.29l-.39.05c-2.13-1.65-4.2-3.44-6.06-5.4l-.09-.5c1.5,1.71,4.71,4.51,6.54,5.85Z"/>
      <path d="M113.04,50.47c-.03.13-.06.27-.12.4-.05.12-.1.24-.18.33-1.72,1.77-3.56,3.31-5.48,4.84-.1.08-.22.12-.35.15-.12.04-.26.07-.39.09,2.26-1.81,4.56-3.64,6.51-5.81Z"/>
      <path d="M113.19,64.01v.3c-.97,1.08-2.02,2.06-3.15,2.96,1-1.09,2.19-2.07,3.15-3.26Z"/>
      <path d="M119.55,50.93c.01,2.55-.85,5.01-1.76,7.38h0s0,.02,0,.03c0,0-.01.01-.01.02-.47.55-.62,1.31-.96,1.92-.71,1.28-1.57,2.48-2.43,3.66-.31.42-.68.83-.97,1.23l-.09.12h-.13c-.96,1.2-2.15,2.18-3.15,3.27l-3.3,2.58c-.27.21-.52.56-.88.67-.31.09-.55.31-.86.51l-3.24,2.08c-1.65,1.03-3.53,1.64-5.23,2.52-2.03,1.05-4.14,1.76-6.28,2.5-3.4,1.16-6.86,2.19-10.41,2.83l-4.64.83c-4.78.85-13.77,1.45-18.66,1.15l-2.43-.14c-2.58-.15-5.08-.4-7.55-.75-2.22-.31-4.46-.62-6.67-1.08l-4.58-.96c-1.14-.09-2.26-.49-3.32-.91-.5-.02-.94-.17-1.3-.46-.4-.09-.82-.36-1.22-.49-.2-.06-.44-.12-.65-.16l-3.01-1.1c-.63-.42-1.46-.49-2.06-.98-3.88-1.6-7.62-3.67-10.96-6.21l-3.17-2.4c-.12-.4-.55-.54-.83-.78-.02-.03-.04-.04-.06-.06-.49-.5-.9-1.12-1.5-1.5-.03-.4-.46-.59-.7-.9h0c-.13-.14-2.03-2.48-1.87-2.24C2.18,59.5.09,55.54.07,51.04L.01,39.01l.13.21c.51,4.45,2.94,8.82,5.87,12.18.08.08.18.14.29.2.12.06.23.1.36.13l.09.5c1.86,1.96,3.93,3.74,6.06,5.4l.39-.05.19.47c3.07,2.06,6.36,3.85,9.72,5.38,0,0,.03-.01.1-.04.06-.02.15-.05.27-.1l.07.33c1.92.82,3.89,1.6,5.89,2.33l.43-.08.12.29c3.03.59,6.04,1.37,9.04,2.35.29.1.6.12.92.08.12,0,.24-.03.37-.06l.4.26c1.8.46,3.73.8,5.56,1.02,0,0,.02,0,.03,0,.09,0,.17-.08.24-.17.16.22.43.3.81.25,3.03.33,6.09.56,9.14.65,2.22.08,4.44.1,6.66.03,3.17-.08,6.33-.31,9.46-.71.14-.02.28-.08.42-.15.11-.05.21-.12.31-.18.03-.03.05-.04.08-.06.15.05.29.09.45.12.77.13,4.44-.44,5.11-.81.14-.08.26-.17.39-.26.04,0,.08-.02.13-.03.17-.03.31.01.43.18,3.33-.68,6.6-1.55,9.81-2.63l.22-.37.65.04c.96-.28,4.84-1.53,5.57-2.1.03-.03.06-.05.08-.07.07-.08.13-.19.19-.29l.53-.06c3.24-1.51,6.34-3.22,9.29-5.14.13-.13.21-.31.26-.52.13-.02.27-.04.39-.09.13-.04.25-.08.35-.15,1.92-1.53,3.76-3.07,5.48-4.84.08-.08.13-.21.18-.33.05-.13.09-.26.12-.4.07-.03.12-.04.17-.04.05-.02.1-.04.15-.06.1-.04.2-.09.26-.16,2.67-2.78,4.69-6.6,5.6-10.3l.05,9.63.27.1Z"/>
      <path d="M6.51,64.05c-.52-.26-.99-.96-1.33-1.51-.28-.14-.46-.38-.54-.72-.15-.24,1.74,2.1,1.87,2.23Z"/>
      <path d="M6.66,50.44c-.13-.03-.24-.07-.36-.13-.11-.06-.21-.12-.29-.2-2.93-3.35-5.36-7.73-5.87-12.18l-.13-.21c.05,0,.13-.01.17.01.06.04.07.12.09.23.9,4.85,3.21,8.87,6.39,12.47Z"/>
      <path d="M113.32,64c-.03.12-.08.12-.13,0h.13Z"/>
      <path d="M114.38,62.65c-.21.5-.59.87-.97,1.23.29-.4.67-.81.97-1.23Z"/>
      <path d="M117.77,57.07c-.25.68-.57,1.32-.96,1.92.34-.62.49-1.37.96-1.92Z"/>
      <path d="M119.55,49.65l-.27-.1-.05-9.63c-.9,3.69-2.92,7.52-5.6,10.3-.06.07-.16.12-.26.16-.05.02-.1.04-.15.06-.05,0-.1.01-.17.04,2.46-2.74,4.62-5.87,5.61-9.47l.85-3.07.05,11.72Z"/>
      <path d="M112.06,65.53c-.41.38-.6,1.04-1.14,1.27-.32.13-.65.29-.89.47,1-1.09,2.19-2.07,3.15-3.26h.13c.25.83-.61.92-1.26,1.52Z"/>
      <path d="M105.85,70.53c.14.44-4.08,2.64-3.89,2.66-.06,0-.15-.02-.21-.07l3.24-2.08c.31-.2.55-.42.86-.51Z"/>
      <path d="M28.8,77.99c-.08-.02-.15-.03-.22-.04-1.02-.19-.96.17-2.79-1.05l3.01,1.1Z"/>
      <path d="M7.21,64.96l-.62-.38c-.26-.47-.69-.93-1.1-1.24-.25-.19-.17-1.1-.84-.85.01-.25.06-.44-.02-.66-.15-.24,1.74,2.1,1.87,2.23h0c.24.32.67.51.7.91Z"/>
      <path d="M117.78,57.05c-.04.22-.52,1.81-.97,1.94.34-.62.49-1.37.96-1.92,0,0,0-.02.01-.02Z"/>
      <path d="M114.38,62.65c-.07.55-.53.94-.97,1.23.29-.4.67-.81.97-1.23Z"/>
      <path d="M9.6,67.3l-.64-.28c-.12-.05-.1-.29-.16-.44t0-.01s-.01-.03-.02-.04c.28.24.71.38.83.78Z"/>
      <path d="M100.27,26.39c-1.4-2.24-3.13-4.21-5.19-5.89-3.18-2.58-6.64-4.58-10.45-6.11-7.86-3.16-16.27-4.53-24.77-4.53-9.59,0-19.77,1.79-28.29,6.16-1.7.87-3.26,1.73-4.8,2.84-3.1,2.23-6.06,5.01-7.86,8.41-2.72,5.16-2.46,10.45.48,15.45,3.12,5.28,9.36,9.35,14.92,11.72,6.88,2.92,14.57,4.45,22.06,4.78,7.7.34,14.98-.38,22.38-2.45,3.3-.92,6.35-2.1,9.41-3.64,2.48-1.24,4.69-2.71,6.87-4.41.8-.62,1.44-1.31,2.16-2.04,1.66-1.67,3.02-3.57,4.03-5.71,2.24-4.76,1.82-10.12-.95-14.58ZM74.32,34.37c-1.78-3.06-7.44-7.17-10.89-5.01-.72.46-.66,1.37-.31,2.06,1.24,2.48,2.55,3.15,3.76,5.75,1.25,2.69-.32,4.48-2.57,5.8-4.47,2.64-10.71,2.26-15.57.26l-4.39,2.49-4.08-2.42,3.89-2.34c-1.7-1.14-4.41-3.15-5.29-5.24l6.07-2.05c.32-.11.41.44.54.63,1.83,2.65,4.5,4.73,7.6,5.6,1.39.39,2.82.3,4-.33.94-.5,1.2-1.43.76-2.36-.99-2.1-3.23-3.6-4.07-6.31-.51-1.64.04-3.12,1.37-4.18,4.28-3.4,11.02-2.95,15.96-1.06l4.08-2.28,4.17,2.38-3.68,2.19c1.44.86,4.14,2.97,4.66,4.41l-6.02,2.02Z"/>
      <path d="M63.15,69.17v.13c-2.22.06-4.44.05-6.66-.03v-.1h6.66Z"/>
      <path d="M100.27,26.39c-1.4-2.24-3.13-4.21-5.19-5.89-3.18-2.58-6.64-4.58-10.45-6.11-7.86-3.16-16.27-4.53-24.77-4.53-9.59,0-19.77,1.79-28.29,6.16-1.7.87-3.26,1.73-4.8,2.84-3.1,2.23-6.06,5.01-7.86,8.41-2.72,5.16-2.46,10.45.48,15.45,3.12,5.28,9.36,9.35,14.92,11.72,6.88,2.92,14.57,4.45,22.06,4.78,7.7.34,14.98-.38,22.38-2.45,3.3-.92,6.35-2.1,9.41-3.64,2.48-1.24,4.69-2.71,6.87-4.41.8-.62,1.44-1.31,2.16-2.04,1.66-1.67,3.02-3.57,4.03-5.71,2.24-4.76,1.82-10.12-.95-14.58ZM74.32,34.37c-1.78-3.06-7.44-7.17-10.89-5.01-.72.46-.66,1.37-.31,2.06,1.24,2.48,2.55,3.15,3.76,5.75,1.25,2.69-.32,4.48-2.57,5.8-4.47,2.64-10.71,2.26-15.57.26l-4.39,2.49-4.08-2.42,3.89-2.34c-1.7-1.14-4.41-3.15-5.29-5.24l6.07-2.05c.32-.11.41.44.54.63,1.83,2.65,4.5,4.73,7.6,5.6,1.39.39,2.82.3,4-.33.94-.5,1.2-1.43.76-2.36-.99-2.1-3.23-3.6-4.07-6.31-.51-1.64.04-3.12,1.37-4.18,4.28-3.4,11.02-2.95,15.96-1.06l4.08-2.28,4.17,2.38-3.68,2.19c1.44.86,4.14,2.97,4.66,4.41l-6.02,2.02Z"/>
    </g>
  </g>
</svg>