<?xml version="1.0" encoding="UTF-8"?>
<svg id="Layer_2" data-name="Layer 2" xmlns="http://www.w3.org/2000/svg" viewBox="0 0 630 1200">
  <defs>
    <style>
      .cls-1 {
        fill: #d87228;
      }

      .cls-2 {
        fill: #231f20;
      }

      .cls-3 {
        fill: #e2a625;
      }

      .cls-4 {
        fill: #4154a5;
      }

      .cls-5 {
        fill: #fff;
      }

      .cls-6 {
        fill: #f5bc23;
      }

      .cls-7 {
        fill: #d77227;
      }
    </style>
  </defs>
  <g id="Layer_1-2" data-name="Layer 1">
    <g>
      <rect class="cls-5" width="630" height="1200"/>
      <g>
        <g>
          <path class="cls-7" d="M315.16,913.03c-50.49,0-91.56-41.08-91.56-91.56v-19.28c-34.3-7.18-59.87-38.08-60.09-73.44,0-2.85.04-5.34.08-7.93l.55-35.29c-84.06-35.06-134.14-97.09-134.14-166.41v-34.43c-.04-.71-.04-1.76-.04-2.75,0-109.33,125.19-194.97,285.02-194.97s279.7,82.26,284.82,188.11h.06l.18,6.86v37.18c0,69.18-49.94,131.17-133.76,166.3l-.3,24.99c-.07,5.56-.14,11.11-.17,16.65,0,1.28-.04,2.96-.14,4.8-.04,1.33-.13,2.75-.23,4.22v3.36s-.4,2-.4,2l-.74,7.96-2.67,5.34c-8.45,24.86-29.27,43.33-54.91,49.01v17.73c0,50.49-41.08,91.56-91.56,91.56ZM314.98,296.11c-154.69,0-275.87,81.62-275.87,185.82,0,.84,0,1.72.04,2.51v34.67c0,66.27,49.1,125.75,131.34,159.13l2.9,1.18-.64,41.18c-.05,2.91-.09,5.35-.09,8.12.21,32.21,24.38,60.22,56.22,65.14l3.88.6v27.02c0,45.44,36.97,82.42,82.41,82.42s82.42-36.97,82.42-82.42v-25.36l3.81-.65c24.15-4.08,43.95-20.92,51.67-43.96l.25-.59,2.04-4.08.95-8.33v-2.74c.1-1.67.19-2.99.23-4.31.09-1.75.13-3.26.13-4.43.03-5.58.1-11.16.17-16.74l.37-31.04,2.81-1.15c81.95-33.46,130.88-92.9,130.88-158.99l-.09-39.39c-1.69-102.96-122.85-183.61-275.82-183.61Z"/>
          <g>
            <path class="cls-3" d="M541.31,481.92v37.18c0,55.38-54.79,103.04-133.55,124.35-20.58,5.58-42.85,9.38-66.18,11.02-8.05-4.16-17.2-6.49-26.89-6.49s-18.75,2.29-26.75,6.45c-22.68-1.65-44.32-5.31-64.44-10.66-79.4-21.18-134.78-69.01-134.78-124.67v-37.18c0,6.31.73,12.53,2.1,18.61,8.05,35.58,38.97,66.82,83.51,88.08,1.42.69,2.79,1.37,4.25,2.01,4.62,2.1,9.42,4.12,14.31,5.99,1.51.64,3.02,1.19,4.57,1.78,4.16,1.51,8.46,2.97,12.85,4.34,1.42.46,2.84.91,4.3,1.33,3.11.96,6.27,1.83,9.47,2.7,27.81,7.36,58.59,11.43,90.92,11.43s63.89-4.21,91.97-11.75c70.16-18.8,121.47-58.49,132.22-105.92,1.37-6.08,2.1-12.3,2.1-18.61Z"/>
            <g>
              <path class="cls-6" d="M541.29,481.93c0,6.31-.73,12.53-2.1,18.61-15.05,66.45-109.67,117.68-224.19,117.68-36.08,0-70.16-5.08-100.39-14.13-1.46-.41-2.88-.87-4.3-1.33-4.39-1.37-8.69-2.84-12.85-4.34-1.56-.59-3.06-1.14-4.57-1.78-4.89-1.87-9.7-3.89-14.31-5.99-1.46-.64-2.84-1.33-4.25-2.01-4.16-1.92-8.19-4.02-12.07-6.17-1.56-.87-3.06-1.74-4.57-2.61-4.07-2.33-8-4.8-11.75-7.36-1.56-1.05-3.11-2.1-4.57-3.2-3.48-2.47-6.72-4.98-9.88-7.64-1.55-1.28-3.06-2.61-4.57-3.93-3.06-2.74-5.95-5.53-8.69-8.46-1.56-1.65-3.11-3.34-4.57-5.08-4.25-4.99-8.05-10.2-11.3-15.55-1.69-2.79-3.2-5.58-4.57-8.42-3.11-6.36-5.44-12.94-6.95-19.67-1.37-6.08-2.1-12.3-2.1-18.61,0-75.23,101.35-136.24,226.29-136.24s226.3,61.01,226.3,136.24Z"/>
              <path class="cls-5" d="M314.99,620.51c-35.53,0-69.53-4.79-101.04-14.23-1.42-.4-2.83-.85-4.24-1.3-4.51-1.42-8.84-2.89-13.03-4.41l-1.09-.41c-1.21-.46-2.41-.91-3.6-1.42-4.78-1.83-9.64-3.86-14.36-6.01-1.17-.51-2.3-1.06-3.46-1.63l-.85-.41c-3.71-1.71-7.7-3.75-12.18-6.23-1.57-.88-3.09-1.75-4.61-2.63-4.05-2.32-8.05-4.82-11.9-7.45-1.7-1.15-3.22-2.18-4.65-3.26-3.45-2.46-6.73-4.99-9.98-7.72-1.56-1.28-3.09-2.63-4.61-3.97-3.23-2.89-6.12-5.71-8.85-8.62-1.58-1.67-3.17-3.4-4.65-5.17-4.33-5.07-8.2-10.4-11.51-15.83-1.7-2.81-3.23-5.62-4.68-8.61-3.18-6.51-5.58-13.29-7.12-20.16-1.43-6.36-2.16-12.79-2.16-19.12,0-76.39,102.54-138.53,228.58-138.53s228.58,62.14,228.58,138.53c0,6.33-.73,12.76-2.16,19.12-15.42,68.1-112.76,119.46-226.42,119.46ZM314.99,347.97c-123.52,0-224.01,60.09-224.01,133.96,0,5.99.69,12.09,2.05,18.11,1.46,6.53,3.75,12.97,6.78,19.16,1.39,2.86,2.85,5.55,4.48,8.24,3.17,5.22,6.9,10.35,11.08,15.25,1.45,1.72,2.97,3.38,4.5,4.99,2.64,2.81,5.44,5.53,8.55,8.32,1.48,1.3,2.97,2.61,4.51,3.88,3.17,2.66,6.35,5.12,9.75,7.54,1.42,1.07,2.89,2.05,4.35,3.05,3.94,2.68,7.84,5.13,11.8,7.39,1.51.87,3.01,1.73,4.55,2.59,4.37,2.42,8.27,4.41,11.91,6.09l.9.44c1.09.53,2.18,1.06,3.31,1.56,4.68,2.13,9.45,4.12,14.22,5.95,1.21.51,2.35.94,3.51,1.38l1.07.41c4.1,1.48,8.36,2.93,12.72,4.3,1.47.47,2.83.91,4.23,1.3,31.13,9.33,64.69,14.05,99.77,14.05,111.58,0,207-49.83,221.96-115.9,1.36-6.03,2.05-12.12,2.05-18.11,0-73.86-100.49-133.96-224.01-133.96Z"/>
            </g>
            <path class="cls-7" d="M407.08,726.55c0,.87-.05,1.74-.09,2.65-.05,1.28-.14,2.61-.23,3.93-.05.09-.05.18-.05.32-1.56,7.59-8.28,13.31-16.33,13.31-9.24,0-16.69-7.45-16.69-16.69v-23.1c0-16.28-6.63-31.05-17.29-41.71-4.34-4.34-9.28-8-14.82-10.79-8.05-4.16-17.2-6.49-26.89-6.49s-18.75,2.29-26.75,6.45c-19.12,9.7-32.24,29.59-32.24,52.55v21.36c0,9.19-7.5,16.69-16.74,16.69s-16.69-7.45-16.74-16.6v-.18c0-3.38.09-7.04.14-10.93.32-19.44.73-47.7,1.14-73.54.23-13.58.41-26.48.59-37,.05-2.15.05-4.21.09-6.17-3.93-60.92,36.82-83.37,92.93-81.36,21.91.09,45.51,2.65,63.11,16.78,20.44,15.41,25.66,42.4,26.62,66.68.05,1.23.09,2.52.14,3.75.5,12.39.73,24.7.78,37,.18,27.99-.46,55.71-.69,83.1Z"/>
            <circle class="cls-7" cx="315.51" cy="463.87" r="34.4"/>
            <path class="cls-5" d="M102.33,528.63v18.71c0,1.23-1.01,2.29-2.29,2.29s-2.29-1.05-2.29-2.29v-27.12c1.37,2.84,2.88,5.63,4.57,8.42Z"/>
            <path class="cls-5" d="M118.2,549.25v9.19c0,1.23-1.01,2.29-2.29,2.29s-2.29-1.05-2.29-2.29v-14.27c1.46,1.74,3.02,3.43,4.57,5.08Z"/>
            <path class="cls-5" d="M131.46,561.65v19.21c0,1.23-1.01,2.29-2.29,2.29s-2.29-1.05-2.29-2.29v-23.14c1.51,1.33,3.02,2.65,4.57,3.93Z"/>
            <path class="cls-5" d="M145.91,572.49v22.46c0,1.28-1.05,2.29-2.29,2.29s-2.29-1.01-2.29-2.29v-25.66c1.46,1.1,3.02,2.15,4.57,3.2Z"/>
            <path class="cls-5" d="M162.24,582.46v21.45c0,1.28-1.01,2.29-2.29,2.29s-2.29-1.01-2.29-2.29v-24.06c1.51.87,3.02,1.74,4.57,2.61Z"/>
            <path class="cls-5" d="M178.57,590.64v27.35c0,1.28-1.01,2.29-2.29,2.29s-2.29-1.01-2.29-2.29v-28.17c0-.46.14-.87.32-1.19,1.42.69,2.79,1.37,4.25,2.01Z"/>
            <path class="cls-5" d="M197.46,598.42v22.73c0,1.23-1.01,2.29-2.29,2.29s-2.29-1.05-2.29-2.29v-24.51c1.51.64,3.02,1.19,4.57,1.78Z"/>
            <path class="cls-5" d="M214.61,604.09v28.04c0,1.23-1.05,2.29-2.29,2.29s-2.29-1.05-2.29-2.29v-28.22c0-.41.09-.82.27-1.14,1.42.46,2.84.91,4.3,1.33Z"/>
            <rect class="cls-7" x="282.31" y="674.71" width="65.69" height="179.6" rx="7.18" ry="7.18"/>
            <path class="cls-4" d="M407.03,730.08c0,1.05-.09,2.06-.27,3.06.09-1.33.18-2.65.23-3.93.05.27.05.59.05.87Z"/>
            <rect class="cls-7" x="203.51" y="453.19" width="52.19" height="24.16" rx="2.64" ry="2.64"/>
            <rect class="cls-7" x="378.76" y="451.79" width="52.19" height="24.16" rx="2.64" ry="2.64"/>
          </g>
          <path class="cls-1" d="M458.9,729.5v.59c0,2.2-.09,4.39-.32,6.59v-1.1c.09-1.37.18-2.74.23-4.07.05-.69.05-1.37.09-2.01Z"/>
          <path class="cls-1" d="M407.04,730.09c0,1.05-.09,2.06-.27,3.06.09-1.33.18-2.65.23-3.93.05.27.05.59.05.87Z"/>
        </g>
        <g>
          <path class="cls-2" d="M167.31,977.51c4.38.05,10.1.98,13.04,4.79,3.61,4.56,4.15,14.43-.48,18.47-.59.65-.88,1.15-.38,1.79,4.81,3.45,5.62,8.99,4.62,14.66-1.83,10.36-11.41,11.14-19.51,10.98-4.5-.1-11.77.18-14.29-.1-.33-2.92,0-37.47-.12-47.74,0-1.11-.02-1.79.02-2.6.06-.25.27-.23.53-.26,2.38.01,12.82-.05,16.44,0h.13ZM160.84,986.7c-.25.57-.05,1.55-.11,2.44.01,2.86-.03,7.39.02,8.25.04.21.15.27.39.3.44.05,1.57.02,2.76.03,2.54-.06,5.16.37,7.17-1.42,1.97-2.04,1.97-6.23,0-8.28-1.71-1.55-3.93-1.41-6.13-1.42-.99.03-3.45-.08-4.04.07l-.05.03ZM160.86,1007.01c-.34.64-.07,1.72-.15,2.72.02,3.08-.04,7.9.03,8.94.06.31.21.37.55.41.57.05,1.96.02,3.33.03,3.35-.08,5.68.42,7.92-1.97,1.74-2.16,1.69-6.64-.24-8.59-1.42-1.43-3.44-1.66-5.38-1.66-1.16.05-4.84-.12-5.99.09l-.06.03Z"/>
          <path class="cls-2" d="M221.77,1010.91c.38-9.45-4.11-17.84-15.16-18.06-12.14-.61-17.78,7.71-17.07,19.21v.2c-.1,10.84,6.88,17.52,17.54,16.68,10.74-.42,15.06-8.79,14.69-18.03ZM211.1,1018.21c0,3.02-2.44,5.47-5.46,5.47s-5.47-2.45-5.47-5.47v-12.71c0-3.02,2.45-5.47,5.47-5.47,1.51,0,2.88.61,3.86,1.6.99.99,1.6,2.36,1.6,3.87v12.71Z"/>
          <path class="cls-2" d="M247.5,996.16c.49.25.3-.93.34-2.71.05-5.31-.09-14.24.06-16.84.13-.45.61-.42,1.02-.45,1.54-.03,5.98,0,7.83-.01.92.07,1.29-.14,1.39.47.07,4.82-.12,38.54.08,43.14.08,1.68.38,5.82.41,7.34.07.79-.48,1.16-1.22,1.12-1.57,0-4.76.06-6.64-.02-1.36,0-1.5-1.5-1.84-2.48-.15-.39-.35-.64-.6-.63-.56.02-1.48,1.28-2.54,1.94-2.2,1.55-5.16,2.11-7.9,1.94-12.94-.45-13.01-17.51-10.69-27.29,2.19-9.12,13.6-11.34,20.23-5.55l.06.03ZM241.98,1001.74c-6.48-.16-5.92,9.08-5.22,13.79.71,5.35,6.94,5.99,10.23,2.48.92-.92.87-1.4.85-3.25,0-2.77,0-6.03,0-8.71.06-2.34-2.93-4.09-5.65-4.3h-.2Z"/>
          <path class="cls-2" d="M284.53,1025.51c-.47-.13-.91.32-1.31.58-3.19,2.52-7.81,3.43-11.91,2.68-6.57-1.14-8.37-6.81-7.71-12.26.4-4.09,3.1-6.96,7.15-8.28,2.99-1,5.09-1.23,8.45-1.76,1.38-.24,4.18-.38,4.28-1.63.44-3.85-4.93-5.05-7.53-2.97-1.26.94-1.13,2.82-2.46,3.1-1.81.28-4.71.08-6.73.12-.44-.02-.93-.06-1.28-.22-1.1-.58-.55-2.09-.34-3.48.89-4.95,6.08-8.2,12.38-8.45,6.21-.52,13.76,1.15,15.53,6.62,1.85,5.18.84,11.35,1.09,16.84-.04,3.22.45,7.76.55,10.72.07.79-.46,1.16-1.21,1.12-1.42.03-4.63.02-6.3,0-2.07.09-1.56-1.72-2.56-2.7l-.08-.04ZM283.69,1018.16c.15-.29.1-.74.11-1.58-.01-1.55.02-3.9-.02-4.49-.02-.09-.06-.19-.15-.24-.82-.03-2.13.32-3.58.5-1.96.33-3.38.39-4.89,1.42-.74.54-1.18,1.29-1.34,2.17-1.2,6.16,7.09,5.72,9.82,2.31l.05-.09Z"/>
          <path class="cls-7" d="M318.98,1019.9c2.97.12,5.93-1.51,6.73-4.48.49-1.37.51-3.06,1.06-3.8,1.25-1.23,3.65-.49,5.33-.68,1.93.11,5-.66,4.76,2-.17,9.08-4.8,14.74-13.28,15.79-13.53,1.97-23.19-3.57-23.7-20.72-.26-5.83-.28-12.26,1.05-17.87,2.41-9.72,8.43-13.78,19.07-13.46,4.64.07,10.09,1.41,12.99,4.79,2.85,2.95,4.64,9.8,3.65,14.61-.3.5-.89.61-1.46.64-1.65.03-4.77.02-6.61,0-.81-.02-1.64-.22-1.94-1.01-.71-2.87-.69-7.87-4.2-9.24-4.04-1.68-9.31-.26-10.65,4.28-1.73,5.14-1.39,11.26-1.26,16.74.51,7.52,1.81,12.13,8.26,12.4h.19Z"/>
          <path class="cls-7" d="M361.98,993.17c.94.88.35,3.22.51,4.71-.09,1.41.24,3.3-.26,4.38-.87.93-2.63.54-3.83.9-2.96.68-4.76,1.63-5.09,3.29-.07,4.15.02,19.26-.04,21.27-.14.82-1.04.45-1.88.55-1.14,0-2.83,0-4.35,0-.98,0-1.89,0-2.54,0-1.19-.05-1.47.07-1.52-.66-.05-8.59.23-24.3-.49-32.3-.1-1.47.15-1.6,1.77-1.6,2.04.07,4.71-.17,6.62.13,1.11.25.93,2.56,1.63,2.95.44.21.86-.33,1.21-.62,1.94-1.91,5.25-3.64,8.17-3.05l.1.05Z"/>
          <path class="cls-7" d="M375.41,1015.47c.23,5.03,5.39,6.97,9.66,4.83,1.77-.7,1.95-3.16,4.01-3.1,1.63-.04,4.82-.04,6.44,0,.44.03.87.09,1.17.35.53.52.26,1.46.14,2.15-.59,2.76-2.28,5.15-4.96,6.81-3.73,2.41-9.86,2.99-14.19,2.22-9.07-1.41-12.99-9.05-12.78-17.55-.37-9.11,4.26-17.56,14.48-18.2,3.45-.3,7.46.26,10.33,1.91,6.72,3.66,8.06,12.37,7.25,19.41-.15.34-.45.38-.79.39-3.14.02-16.54,0-19.92.01-.46.01-.79.15-.84.66v.11ZM375.24,1007.02c.05.32.29.26.76.27,2.92-.02,9.16.03,10.54-.02.44-.2.23-.67.19-1.24-.43-4.21-3.84-6.07-7.67-5.04-2.29.51-3.7,3.14-3.82,5.93v.12Z"/>
          <path class="cls-7" d="M422.87,996.16c.49.25.3-.93.34-2.71.05-5.31-.09-14.24.06-16.84.13-.45.61-.42,1.02-.45,1.54-.03,5.98,0,7.83-.01.92.07,1.29-.14,1.39.47.07,4.82-.12,38.54.08,43.14.08,1.68.38,5.82.41,7.34.07.79-.48,1.16-1.22,1.12-1.57,0-4.76.06-6.64-.02-1.36,0-1.5-1.5-1.84-2.48-.15-.39-.35-.64-.6-.63-.56.02-1.48,1.28-2.54,1.94-2.2,1.55-5.16,2.11-7.9,1.94-12.94-.45-13.01-17.51-10.69-27.29,2.19-9.12,13.6-11.34,20.23-5.55l.06.03ZM417.35,1001.74c-6.48-.16-5.92,9.08-5.22,13.79.71,5.35,6.94,5.99,10.23,2.48.92-.92.87-1.4.85-3.25,0-2.77,0-6.03,0-8.71.06-2.34-2.93-4.09-5.65-4.3h-.2Z"/>
          <path class="cls-7" d="M450.84,988.79c-2.7.22-6.77.01-9.69.08-1.13.02-.96-.05-.98-1.47,0-2.44,0-5.34,0-7.72-.02-2.04-.14-1.62,1.93-1.67,2.49,0,5.36,0,7.89,0,1.13-.02.96.05.98,1.47-.07,2.82.15,6.66-.09,9.27l-.04.04ZM440.69,993.82c2.07-.08,8.1-.21,9.86.06.43,2.91.01,27.59.16,33.14-.04.98.22,1.16-1.04,1.17-1.5.01-5.77,0-7.72,0-.82-.07-1.22.15-1.49-.32-.07-1.71-.01-17.12-.03-26.6,0-3.57,0-6.29,0-7.11.01-.16.04-.27.19-.34l.05-.02Z"/>
          <path class="cls-7" d="M479.57,994.06c.5,1.01.16,3.14.26,4.57-.02,1.18.07,2.31-.09,3.3-.08.36-.24.56-.58.67-1.87.37-5.63-.16-7.7.27-.79.53-.36,1.63-.47,2.77.03,3.33-.06,6.81.04,9.57.2,4.39,2.93,5.22,6.9,4.85.89-.03,1.18.52,1.21,1.29.05,1.35.04,3.94.01,5.32-.03.54-.06,1.12-.43,1.51-1.11.82-3.39.74-5.08.84-7.36.25-12.52-3.82-12.83-11.26-.24-3.83-.04-9.96-.11-13.43.25-2.3-2.29-1.39-3.7-1.64-1.15.01-1.6-.64-1.55-1.7,0-1.59-.04-4.51.02-5.88.01-2.01,2.75-1.15,4.02-1.43.59-.07.94-.26,1.08-.68.26-.88.09-3.02.14-4.28,0-.98,0-1.97,0-2.92,0-1.54.16-1.82,1.55-1.82,2.3-.01,4.9,0,7.16,0,1.39,0,1.55.28,1.55,1.82,0,1.77,0,3.72,0,5.48,0,1.56-.13,2.45,1.35,2.44,1.85.19,5.75-.32,7.17.28l.06.06Z"/>
        </g>
      </g>
    </g>
  </g>
</svg>