<?xml version="1.0" encoding="UTF-8"?>
<svg id="Layer_2" data-name="Layer 2" xmlns="http://www.w3.org/2000/svg" viewBox="0 0 1200 630">
  <defs>
    <style>
      .cls-1 {
        fill: #d87228;
      }

      .cls-2 {
        fill: #231f20;
      }

      .cls-3 {
        fill: #e2a625;
      }

      .cls-4 {
        fill: #4154a5;
      }

      .cls-5 {
        fill: #fff;
      }

      .cls-6 {
        fill: #f5bc23;
      }

      .cls-7 {
        fill: #d77227;
      }
    </style>
  </defs>
  <g id="Layer_1-2" data-name="Layer 1">
    <g>
      <rect class="cls-5" x="285" y="-285" width="630" height="1200" transform="translate(285 915) rotate(-90)"/>
      <g>
        <g>
          <path class="cls-7" d="M244.8,418.41c-16.68,0-30.25-13.57-30.25-30.25v-6.37c-11.33-2.37-19.78-12.58-19.85-24.26,0-.94.01-1.76.03-2.62l.18-11.66c-27.77-11.58-44.31-32.07-44.31-54.97v-11.38c-.01-.23-.01-.58-.01-.91,0-36.12,41.36-64.41,94.16-64.41s92.4,27.17,94.09,62.14h.02l.06,2.27v12.28c0,22.85-16.5,43.33-44.19,54.94l-.1,8.26c-.02,1.84-.05,3.67-.06,5.5,0,.42-.01.98-.05,1.58-.01.44-.04.91-.08,1.39v1.11s-.13.66-.13.66l-.24,2.63-.88,1.76c-2.79,8.21-9.67,14.31-18.14,16.19v5.86c0,16.68-13.57,30.25-30.25,30.25ZM244.74,214.61c-51.1,0-91.13,26.96-91.13,61.39,0,.28,0,.57.01.83v11.45c0,21.89,16.22,41.54,43.39,52.57l.96.39-.21,13.6c-.02.96-.03,1.77-.03,2.68.07,10.64,8.05,19.89,18.57,21.52l1.28.2v8.92c0,15.01,12.21,27.23,27.22,27.23s27.23-12.21,27.23-27.23v-8.38l1.26-.21c7.98-1.35,14.52-6.91,17.07-14.52l.08-.19.67-1.35.31-2.75v-.9c.03-.55.06-.99.08-1.42.03-.58.04-1.08.04-1.46.01-1.84.03-3.69.06-5.53l.12-10.25.93-.38c27.07-11.05,43.24-30.69,43.24-52.52l-.03-13.01c-.56-34.01-40.58-60.66-91.12-60.66Z"/>
          <g>
            <path class="cls-3" d="M319.51,275.99v12.28c0,18.3-18.1,34.04-44.12,41.08-6.8,1.84-14.16,3.1-21.86,3.64-2.66-1.37-5.68-2.15-8.88-2.15s-6.19.76-8.84,2.13c-7.49-.54-14.64-1.75-21.29-3.52-26.23-7-44.52-22.8-44.52-41.19v-12.28c0,2.08.24,4.14.7,6.15,2.66,11.75,12.87,22.07,27.59,29.1.47.23.92.45,1.41.66,1.53.7,3.11,1.36,4.73,1.98.5.21,1,.39,1.51.59,1.37.5,2.8.98,4.25,1.44.47.15.94.3,1.42.44,1.03.32,2.07.6,3.13.89,9.19,2.43,19.35,3.78,30.04,3.78s21.11-1.39,30.38-3.88c23.18-6.21,40.13-19.32,43.68-34.99.45-2.01.7-4.06.7-6.15Z"/>
            <g>
              <path class="cls-6" d="M319.5,276c0,2.08-.24,4.14-.7,6.15-4.97,21.95-36.23,38.87-74.06,38.87-11.92,0-23.18-1.68-33.16-4.67-.48-.14-.95-.29-1.42-.44-1.45-.45-2.87-.94-4.25-1.44-.51-.2-1.01-.38-1.51-.59-1.62-.62-3.2-1.28-4.73-1.98-.48-.21-.94-.44-1.41-.66-1.37-.63-2.7-1.33-3.99-2.04-.51-.29-1.01-.57-1.51-.86-1.34-.77-2.64-1.59-3.88-2.43-.51-.35-1.03-.7-1.51-1.06-1.15-.82-2.22-1.65-3.26-2.52-.51-.42-1.01-.86-1.51-1.3-1.01-.91-1.96-1.83-2.87-2.8-.51-.54-1.03-1.1-1.51-1.68-1.41-1.65-2.66-3.37-3.73-5.14-.56-.92-1.06-1.84-1.51-2.78-1.03-2.1-1.8-4.28-2.3-6.5-.45-2.01-.7-4.06-.7-6.15,0-24.85,33.48-45.01,74.76-45.01s74.76,20.15,74.76,45.01Z"/>
              <path class="cls-5" d="M244.74,321.78c-11.74,0-22.97-1.58-33.38-4.7-.47-.13-.94-.28-1.4-.43-1.49-.47-2.92-.95-4.31-1.46l-.36-.14c-.4-.15-.8-.3-1.19-.47-1.58-.6-3.18-1.27-4.74-1.99-.39-.17-.76-.35-1.14-.54l-.28-.14c-1.22-.57-2.55-1.24-4.02-2.06-.52-.29-1.02-.58-1.52-.87-1.34-.77-2.66-1.59-3.93-2.46-.56-.38-1.06-.72-1.54-1.08-1.14-.81-2.22-1.65-3.3-2.55-.51-.42-1.02-.87-1.52-1.31-1.07-.96-2.02-1.89-2.92-2.85-.52-.55-1.05-1.12-1.54-1.71-1.43-1.68-2.71-3.44-3.8-5.23-.56-.93-1.07-1.86-1.54-2.84-1.05-2.15-1.84-4.39-2.35-6.66-.47-2.1-.71-4.22-.71-6.31,0-25.23,33.87-45.76,75.51-45.76s75.51,20.53,75.51,45.76c0,2.09-.24,4.22-.71,6.32-5.09,22.5-37.25,39.46-74.8,39.46ZM244.74,231.74c-40.8,0-74,19.85-74,44.25,0,1.98.23,3.99.68,5.98.48,2.16,1.24,4.28,2.24,6.33.46.95.94,1.83,1.48,2.72,1.05,1.72,2.28,3.42,3.66,5.04.48.57.98,1.12,1.49,1.65.87.93,1.8,1.83,2.82,2.75.49.43.98.86,1.49,1.28,1.05.88,2.1,1.69,3.22,2.49.47.35.95.68,1.44,1.01,1.3.89,2.59,1.69,3.9,2.44.5.29.99.57,1.5.86,1.44.8,2.73,1.46,3.93,2.01l.3.14c.36.18.72.35,1.09.51,1.54.7,3.12,1.36,4.7,1.97.4.17.78.31,1.16.46l.35.13c1.35.49,2.76.97,4.2,1.42.49.16.94.3,1.4.43,10.28,3.08,21.37,4.64,32.96,4.64,36.86,0,68.38-16.46,73.33-38.29.45-1.99.68-4,.68-5.98,0-24.4-33.2-44.25-74-44.25Z"/>
            </g>
            <path class="cls-7" d="M275.16,356.81c0,.29-.02.57-.03.88-.02.42-.05.86-.08,1.3-.02.03-.02.06-.02.11-.51,2.51-2.73,4.4-5.39,4.4-3.05,0-5.51-2.46-5.51-5.51v-7.63c0-5.38-2.19-10.26-5.71-13.78-1.44-1.44-3.07-2.64-4.9-3.57-2.66-1.37-5.68-2.15-8.88-2.15s-6.19.76-8.84,2.13c-6.32,3.2-10.65,9.78-10.65,17.36v7.06c0,3.04-2.48,5.51-5.53,5.51s-5.51-2.46-5.53-5.48v-.06c0-1.12.03-2.33.05-3.61.11-6.42.24-15.76.38-24.29.08-4.49.14-8.75.2-12.22.02-.71.02-1.39.03-2.04-1.3-20.12,12.16-27.54,30.7-26.88,7.24.03,15.03.88,20.85,5.54,6.75,5.09,8.48,14.01,8.79,22.03.02.41.03.83.05,1.24.17,4.09.24,8.16.26,12.22.06,9.25-.15,18.4-.23,27.45Z"/>
            <circle class="cls-7" cx="244.91" cy="270.03" r="11.37"/>
            <path class="cls-5" d="M174.49,291.42v6.18c0,.41-.33.76-.76.76s-.76-.35-.76-.76v-8.96c.45.94.95,1.86,1.51,2.78Z"/>
            <path class="cls-5" d="M179.73,298.24v3.04c0,.41-.33.76-.76.76s-.76-.35-.76-.76v-4.71c.48.57,1,1.13,1.51,1.68Z"/>
            <path class="cls-5" d="M184.11,302.33v6.35c0,.41-.33.76-.76.76s-.76-.35-.76-.76v-7.64c.5.44,1,.88,1.51,1.3Z"/>
            <path class="cls-5" d="M188.89,305.91v7.42c0,.42-.35.76-.76.76s-.76-.33-.76-.76v-8.48c.48.36,1,.71,1.51,1.06Z"/>
            <path class="cls-5" d="M194.28,309.2v7.09c0,.42-.33.76-.76.76s-.76-.33-.76-.76v-7.95c.5.29,1,.57,1.51.86Z"/>
            <path class="cls-5" d="M199.68,311.91v9.03c0,.42-.33.76-.76.76s-.76-.33-.76-.76v-9.31c0-.15.05-.29.11-.39.47.23.92.45,1.41.66Z"/>
            <path class="cls-5" d="M205.92,314.48v7.51c0,.41-.33.76-.76.76s-.76-.35-.76-.76v-8.1c.5.21,1,.39,1.51.59Z"/>
            <path class="cls-5" d="M211.58,316.35v9.26c0,.41-.35.76-.76.76s-.76-.35-.76-.76v-9.32c0-.14.03-.27.09-.38.47.15.94.3,1.42.44Z"/>
            <rect class="cls-7" x="233.95" y="339.68" width="21.7" height="59.33" rx="10.85" ry="10.85"/>
            <path class="cls-4" d="M275.15,357.97c0,.35-.03.68-.09,1.01.03-.44.06-.88.08-1.3.02.09.02.2.02.29Z"/>
            <rect class="cls-7" x="207.91" y="266.5" width="17.24" height="7.98" rx="2.64" ry="2.64"/>
            <rect class="cls-7" x="265.81" y="266.04" width="17.24" height="7.98" rx="2.64" ry="2.64"/>
          </g>
          <path class="cls-1" d="M292.28,357.78v.2c0,.73-.03,1.45-.11,2.18v-.36c.03-.45.06-.91.08-1.34.02-.23.02-.45.03-.66Z"/>
          <path class="cls-1" d="M275.15,357.98c0,.35-.03.68-.09,1.01.03-.44.06-.88.08-1.3.02.09.02.2.02.29Z"/>
        </g>
        <g>
          <path class="cls-2" d="M420.2,264.44c8.82.1,20.34,1.98,26.25,9.64,7.26,9.18,8.35,29.05-.97,37.19-1.2,1.31-1.78,2.31-.77,3.61,9.68,6.96,11.31,18.1,9.3,29.51-3.69,20.86-22.98,22.43-39.28,22.11-9.06-.2-23.69.36-28.76-.2-.67-5.87,0-75.44-.23-96.11.02-2.24-.05-3.61.03-5.22.12-.5.54-.47,1.08-.52,4.8.02,25.81-.09,33.1,0h.26ZM407.16,282.94c-.51,1.15-.1,3.12-.22,4.9.03,5.76-.06,14.87.05,16.62.08.43.3.54.78.61.88.09,3.17.03,5.55.05,5.12-.13,10.38.74,14.43-2.85,3.96-4.11,3.97-12.54,0-16.67-3.45-3.11-7.92-2.84-12.34-2.86-1.99.06-6.95-.15-8.14.13l-.1.06ZM407.22,323.82c-.68,1.29-.15,3.46-.31,5.48.03,6.21-.07,15.9.06,18,.11.61.43.74,1.1.82,1.15.1,3.95.04,6.7.06,6.75-.16,11.43.84,15.95-3.97,3.51-4.34,3.41-13.37-.49-17.29-2.86-2.87-6.93-3.35-10.83-3.34-2.34.09-9.74-.24-12.06.18l-.11.07Z"/>
          <path class="cls-2" d="M529.84,331.67c.77-19.03-8.27-35.92-30.52-36.36-24.44-1.23-35.8,15.52-34.37,38.67l.02.4c-.22,21.82,13.83,35.27,35.29,33.58,21.62-.85,30.32-17.7,29.58-36.3ZM508.36,346.37c0,6.08-4.91,11.01-10.99,11.01s-11.01-4.93-11.01-11.01v-25.59c0-6.08,4.93-11.01,11.01-11.01,3.04,0,5.8,1.23,7.77,3.22,1.99,1.99,3.22,4.75,3.22,7.79v25.59Z"/>
          <path class="cls-2" d="M581.64,301.98c1,.51.61-1.87.69-5.45.09-10.69-.19-28.66.11-33.9.25-.9,1.23-.84,2.06-.9,3.1-.06,12.05-.02,15.77-.02,1.85.15,2.59-.28,2.79.95.15,9.71-.24,77.58.17,86.85.17,3.38.77,11.72.83,14.78.14,1.59-.96,2.33-2.45,2.25-3.17.02-9.59.13-13.36-.04-2.73,0-3.02-3.01-3.71-5-.31-.79-.7-1.28-1.2-1.26-1.13.04-2.98,2.59-5.12,3.91-4.43,3.13-10.38,4.25-15.91,3.9-26.06-.9-26.19-35.26-21.52-54.95,4.42-18.36,27.39-22.83,40.73-11.17l.13.06ZM570.53,313.22c-13.04-.32-11.91,18.29-10.51,27.76,1.44,10.76,13.96,12.05,20.59,4.98,1.85-1.85,1.74-2.81,1.72-6.55,0-5.57,0-12.13,0-17.53.12-4.71-5.89-8.24-11.38-8.65h-.41Z"/>
          <path class="cls-2" d="M656.19,361.08c-.95-.27-1.84.64-2.63,1.16-6.43,5.07-15.73,6.91-23.98,5.4-13.23-2.29-16.86-13.71-15.52-24.68.81-8.23,6.24-14.01,14.39-16.66,6.01-2.01,10.25-2.47,17-3.55,2.78-.49,8.42-.77,8.61-3.28.88-7.75-9.93-10.16-15.15-5.98-2.54,1.89-2.28,5.67-4.96,6.24-3.65.57-9.48.16-13.56.25-.88-.04-1.87-.11-2.57-.43-2.22-1.16-1.11-4.21-.69-7.01,1.8-9.96,12.24-16.5,24.93-17.01,12.5-1.05,27.7,2.32,31.26,13.34,3.72,10.43,1.69,22.85,2.19,33.91-.09,6.49.91,15.63,1.1,21.57.14,1.6-.92,2.33-2.44,2.26-2.86.06-9.32.05-12.67,0-4.17.17-3.15-3.46-5.16-5.45l-.16-.07ZM654.49,346.27c.3-.59.2-1.49.22-3.17-.02-3.12.04-7.85-.04-9.04-.05-.19-.11-.39-.3-.49-1.66-.06-4.29.64-7.21,1.01-3.95.67-6.8.8-9.85,2.86-1.48,1.08-2.38,2.6-2.69,4.37-2.42,12.4,14.27,11.52,19.78,4.64l.1-.18Z"/>
          <path class="cls-7" d="M725.55,349.77c5.97.24,11.93-3.03,13.55-9.03.99-2.76,1.02-6.17,2.14-7.65,2.51-2.48,7.34-.98,10.74-1.37,3.89.23,10.08-1.34,9.58,4.03-.35,18.28-9.66,29.67-26.73,31.8-27.23,3.97-46.68-7.2-47.71-41.72-.53-11.73-.57-24.69,2.12-35.97,4.84-19.58,16.98-27.74,38.4-27.1,9.34.15,20.32,2.83,26.15,9.64,5.74,5.94,9.34,19.74,7.35,29.41-.6,1.01-1.8,1.22-2.93,1.29-3.32.06-9.59.05-13.31.01-1.62-.03-3.29-.44-3.91-2.03-1.43-5.79-1.39-15.85-8.45-18.61-8.12-3.38-18.75-.52-21.45,8.62-3.49,10.36-2.79,22.67-2.54,33.71,1.03,15.14,3.63,24.42,16.63,24.97h.37Z"/>
          <path class="cls-7" d="M812.12,295.96c1.89,1.76.7,6.48,1.02,9.48-.17,2.83.48,6.65-.53,8.81-1.75,1.87-5.3,1.08-7.71,1.8-5.97,1.37-9.59,3.28-10.25,6.62-.14,8.35.05,38.77-.08,42.83-.29,1.65-2.1.91-3.79,1.11-2.29,0-5.69,0-8.75,0-1.98,0-3.81,0-5.12,0-2.4-.1-2.96.14-3.05-1.33-.09-17.3.47-48.92-1-65.03-.2-2.96.29-3.23,3.56-3.21,4.12.14,9.47-.35,13.33.26,2.23.5,1.88,5.15,3.27,5.94.88.42,1.73-.66,2.45-1.25,3.91-3.84,10.56-7.32,16.45-6.15l.2.11Z"/>
          <path class="cls-7" d="M839.17,340.85c.47,10.12,10.86,14.03,19.44,9.73,3.57-1.41,3.92-6.36,8.07-6.25,3.27-.09,9.71-.08,12.97,0,.88.07,1.75.18,2.35.7,1.07,1.05.53,2.95.29,4.34-1.19,5.56-4.59,10.37-9.98,13.72-7.5,4.86-19.85,6.02-28.57,4.46-18.25-2.84-26.14-18.22-25.73-35.34-.75-18.35,8.58-35.36,29.16-36.63,6.95-.61,15.03.52,20.79,3.85,13.52,7.36,16.22,24.9,14.59,39.07-.29.69-.9.77-1.59.79-6.33.03-33.3-.01-40.11.02-.93.03-1.59.3-1.68,1.33v.23ZM838.82,323.84c.09.65.59.53,1.53.54,5.87-.03,18.44.06,21.21-.05.88-.41.46-1.36.37-2.51-.86-8.47-7.72-12.23-15.45-10.15-4.62,1.02-7.46,6.32-7.7,11.94l.02.23Z"/>
          <path class="cls-7" d="M934.71,301.98c1,.51.61-1.87.69-5.45.09-10.69-.19-28.66.11-33.9.25-.9,1.23-.84,2.06-.9,3.1-.06,12.05-.02,15.77-.02,1.85.15,2.59-.28,2.79.95.15,9.71-.24,77.58.17,86.85.17,3.38.77,11.72.83,14.78.14,1.59-.96,2.33-2.45,2.25-3.17.02-9.59.13-13.36-.04-2.73,0-3.02-3.01-3.71-5-.31-.79-.7-1.28-1.2-1.26-1.13.04-2.98,2.59-5.12,3.91-4.43,3.13-10.38,4.25-15.91,3.9-26.06-.9-26.19-35.26-21.52-54.95,4.42-18.36,27.39-22.83,40.73-11.17l.13.06ZM923.6,313.22c-13.04-.32-11.91,18.29-10.51,27.76,1.44,10.76,13.96,12.05,20.59,4.98,1.85-1.85,1.74-2.81,1.72-6.55,0-5.57,0-12.13,0-17.53.12-4.71-5.89-8.24-11.38-8.65h-.41Z"/>
          <path class="cls-7" d="M991.02,287.15c-5.44.45-13.63.03-19.51.17-2.27.05-1.93-.11-1.97-2.96,0-4.91,0-10.74,0-15.53-.04-4.1-.28-3.26,3.88-3.36,5.01,0,10.8,0,15.88,0,2.27-.05,1.93.11,1.97,2.96-.15,5.67.3,13.41-.17,18.66l-.07.07ZM970.57,297.27c4.17-.16,16.3-.43,19.85.13.88,5.87.03,55.54.31,66.72-.08,1.96.43,2.34-2.09,2.37-3.02.03-11.62,0-15.54.01-1.66-.14-2.46.29-2.99-.64-.14-3.44-.02-34.47-.06-53.55,0-7.19-.02-12.66.01-14.32.02-.33.08-.55.39-.68l.11-.04Z"/>
          <path class="cls-7" d="M1048.85,297.75c1.01,2.03.33,6.31.52,9.19-.05,2.38.14,4.66-.18,6.65-.16.72-.48,1.13-1.16,1.35-3.76.75-11.33-.31-15.51.55-1.59,1.06-.72,3.28-.95,5.58.05,6.71-.12,13.71.09,19.26.41,8.84,5.91,10.51,13.9,9.76,1.79-.06,2.38,1.05,2.44,2.6.11,2.73.07,7.93.02,10.71-.07,1.1-.12,2.26-.87,3.04-2.23,1.65-6.83,1.49-10.23,1.7-14.83.51-25.21-7.68-25.82-22.67-.48-7.71-.09-20.06-.21-27.05.49-4.64-4.61-2.81-7.46-3.3-2.31.02-3.22-1.28-3.12-3.43-.01-3.19-.08-9.09.04-11.83.02-4.04,5.53-2.32,8.08-2.88,1.2-.15,1.89-.52,2.18-1.37.52-1.78.18-6.07.27-8.61,0-1.98,0-3.96,0-5.88,0-3.11.33-3.66,3.13-3.66,4.63-.02,9.86-.02,14.41,0,2.8,0,3.13.56,3.13,3.66.01,3.56,0,7.49,0,11.03.01,3.13-.26,4.93,2.72,4.91,3.73.37,11.58-.64,14.44.56l.12.13Z"/>
        </g>
      </g>
    </g>
  </g>
</svg>